<?xml version="1.0" encoding="utf-8"?>
<!-- Generator: Adobe Illustrator 16.0.0, SVG Export Plug-In . SVG Version: 6.00 Build 0)  -->
<!DOCTYPE svg PUBLIC "-//W3C//DTD SVG 1.1//EN" "http://www.w3.org/Graphics/SVG/1.1/DTD/svg11.dtd">
<svg version="1.1" id="Calque_1" xmlns="http://www.w3.org/2000/svg" xmlns:xlink="http://www.w3.org/1999/xlink" x="0px" y="0px"
	 width="15.023px" height="15.023px" viewBox="0 0 15.023 15.023" enable-background="new 0 0 15.023 15.023" xml:space="preserve">
<path fill-rule="evenodd" clip-rule="evenodd" d="M11.491,6.41c0-0.582,0.001-1.356-0.001-1.923
	c-0.002-0.292,0.003-0.584-0.021-0.875c-0.141-1.63-1.297-3.022-2.874-3.46C8.34,0.082,8.074,0.05,7.813,0c-0.2,0-0.4,0-0.601,0
	c-0.181,0.03-0.362,0.051-0.54,0.092C4.797,0.523,3.537,2.102,3.535,4.024c0,0.68,0,1.359,0,2.039c0,0.045,0,0.244,0,0.293
	C3.155,6.391,2.786,6.425,2.416,6.458c0,2.755,0,5.347,0,8.1c0.565,0.05,1.125,0.101,1.685,0.149
	c0.813,0.072,1.626,0.146,2.44,0.216c0.34,0.03,0.682,0.086,1.021,0.075c0.494-0.016,0.988-0.08,1.482-0.124
	c0.912-0.081,1.826-0.161,2.738-0.242c0.277-0.024,0.553-0.051,0.823-0.075c0-2.762,0-5.297,0-8.045
	C12.23,6.478,11.863,6.445,11.491,6.41z M4.499,4.018c0.005-1.504,1.068-2.75,2.552-2.994c1.663-0.272,3.283,0.953,3.447,2.626
	c0.044,0.448,0.023,0.903,0.027,1.355c0.006,0.429,0.002,0.858,0.002,1.301C9.669,6.232,8.83,6.17,7.994,6.081
	c-0.414-0.045-0.82-0.01-1.23,0.026c-0.748,0.065-1.495,0.133-2.259,0.2C4.502,6.261,4.499,6.219,4.499,6.176
	C4.499,5.457,4.496,4.738,4.499,4.018z M11.648,13.772l-4.135,0.381l-4.24-0.381V7.198l4.24-0.376l4.135,0.376V13.772z"/>
</svg>
