<?xml version="1.0" encoding="utf-8"?>
<!-- Generator: Adobe Illustrator 16.0.0, SVG Export Plug-In . SVG Version: 6.00 Build 0)  -->
<!DOCTYPE svg PUBLIC "-//W3C//DTD SVG 1.1//EN" "http://www.w3.org/Graphics/SVG/1.1/DTD/svg11.dtd">
<svg version="1.1" id="Calque_1" xmlns="http://www.w3.org/2000/svg" xmlns:xlink="http://www.w3.org/1999/xlink" x="0px" y="0px"
	 width="18.938px" height="18.938px" viewBox="0 0 18.938 18.938" enable-background="new 0 0 18.938 18.938" xml:space="preserve">
<path fill="none" stroke="#FFFFFF" stroke-miterlimit="10" d="M9.526,4.667c0.424-0.442,0.843-0.89,1.273-1.327
	c0.822-0.837,1.822-1.3,2.994-1.355c2.305-0.111,4.223,1.524,4.568,3.614c0.25,1.519-0.211,2.812-1.297,3.886
	c-1.797,1.772-3.596,3.542-5.396,5.313c-0.688,0.68-1.377,1.357-2.063,2.037c-0.045,0.045-0.092,0.086-0.144,0.135
	c-0.049-0.047-0.092-0.084-0.133-0.125c-2.479-2.453-4.961-4.908-7.449-7.359C0.993,8.61,0.511,7.562,0.51,6.31
	C0.508,4.29,1.978,2.481,3.958,2.077c1.593-0.326,2.98,0.086,4.144,1.222c0.455,0.444,0.883,0.916,1.322,1.375
	C9.456,4.671,9.491,4.669,9.526,4.667z"/>
</svg>
