<?xml version="1.0" encoding="utf-8"?>
<!-- Generator: Adobe Illustrator 16.0.0, SVG Export Plug-In . SVG Version: 6.00 Build 0)  -->
<!DOCTYPE svg PUBLIC "-//W3C//DTD SVG 1.1//EN" "http://www.w3.org/Graphics/SVG/1.1/DTD/svg11.dtd">
<svg version="1.1" id="Calque_1" xmlns="http://www.w3.org/2000/svg" xmlns:xlink="http://www.w3.org/1999/xlink" x="0px" y="0px"
	 width="16.033px" height="16.033px" viewBox="0 -0.063 16.033 16.033" enable-background="new 0 -0.063 16.033 16.033"
	 xml:space="preserve">
<path fill-rule="evenodd" clip-rule="evenodd" stroke="#000000" stroke-width="0.15" stroke-linecap="round" stroke-linejoin="round" stroke-miterlimit="10" d="
	M7.958,0.371c0.051,0,0.101,0,0.152,0c0.09,0.056,0.183,0.106,0.27,0.167c0.173,0.12,0.342,0.245,0.514,0.367
	c2.253,1.604,4.509,3.209,6.765,4.813c0.16,0.115,0.277,0.262,0.311,0.462c0.014,0.085,0.023,0.172,0.023,0.259
	C15.99,7.042,15.98,7.645,15.98,8.249c-0.004,1.682-0.002,3.364-0.002,5.045c0,0.609,0,1.219-0.002,1.828
	c0,0.244-0.109,0.375-0.334,0.41c-0.055,0.008-0.111,0.004-0.168,0.004c-4.963,0-9.924,0-14.886,0c-0.034,0-0.067,0.002-0.101,0
	c-0.239-0.01-0.364-0.115-0.385-0.316c-0.001-0.008-0.01-0.014-0.014-0.02c0-3.033,0-6.066,0-9.099
	c0.051-0.143,0.152-0.243,0.273-0.33c0.535-0.384,1.067-0.772,1.603-1.155c1.636-1.167,3.272-2.334,4.91-3.498
	C7.232,0.865,7.597,0.62,7.958,0.371z M14.977,6.154C14.945,6.13,14.922,6.113,14.9,6.097c-0.92-0.657-1.84-1.314-2.758-1.972
	c-1.342-0.959-2.684-1.918-4.024-2.878C8.053,1.199,8.005,1.191,7.936,1.242c-0.187,0.139-0.381,0.267-0.57,0.403
	c-1.95,1.4-3.9,2.801-5.85,4.201c-0.14,0.101-0.28,0.201-0.425,0.306c0.027,0.021,0.044,0.034,0.063,0.047
	c2.256,1.613,4.513,3.226,6.769,4.839c0.104,0.074,0.123,0.074,0.23-0.002c1.808-1.292,3.614-2.584,5.42-3.876
	C14.037,6.827,14.502,6.494,14.977,6.154z M15.23,14.794c0-2.643,0-5.276,0-7.918c-3.65,2.591-7.28,5.194-10.846,7.918
	C8.014,14.794,11.621,14.794,15.23,14.794z M0.836,14.798c0.043,0.004,0.082,0.008,0.121,0.008c0.677,0,1.354-0.002,2.03,0.002
	c0.115,0,0.211-0.031,0.303-0.102c1.186-0.896,2.373-1.791,3.559-2.688c0.189-0.143,0.377-0.287,0.573-0.436
	c-2.198-1.57-4.386-3.135-6.586-4.707C0.836,9.524,0.836,12.153,0.836,14.798z"/>
</svg>
