<?xml version="1.0" encoding="utf-8"?>
<!-- Generator: Adobe Illustrator 19.1.0, SVG Export Plug-In . SVG Version: 6.00 Build 0)  -->
<svg version="1.1" id="Calque_1" xmlns="http://www.w3.org/2000/svg" xmlns:xlink="http://www.w3.org/1999/xlink" x="0px" y="0px"
	 viewBox="0 0 1024 768" enable-background="new 0 0 1024 768" xml:space="preserve">
<g>
	<g>
		<circle fill="#FFFFFF" cx="463.527" cy="392.243" r="73.991"/>
		<circle fill="#FFFFFF" cx="790.943" cy="392.243" r="73.991"/>
		<path fill="#5BC1AD" d="M175.151,340.854h0.562c12.071-16.002,26.946-22.736,45.473-22.736c20.771,0,38.735,8.42,49.121,27.506
			c9.824-17.964,29.191-27.506,48.841-27.506c36.491,0,49.121,23.857,49.121,56.979v91.787h-51.086v-68.771
			c0-14.875,0.562-39.295-21.053-39.295c-23.578,0-24.419,22.174-24.419,39.295v68.771h-51.086v-68.771
			c0-15.999,0-40.418-22.736-40.418s-22.736,24.419-22.736,40.418v68.771h-51.086V322.889h51.086V340.854z"/>
		<path fill="#5BC1AD" d="M610.449,538.078h-50.929V322.893h50.929V538.078z"/>
		<path fill="#5BC1AD" d="M694.877,538.078h-50.928V322.893h50.928V538.078z"/>
		<circle fill="#FFFFFF" cx="584.985" cy="268.84" r="28.6"/>
		<circle fill="#FFFFFF" cx="669.413" cy="268.84" r="28.6"/>
		<rect x="864.2" y="322.092" fill="#5BC1AD" width="51.06" height="144.791"/>
	</g>
</g>
</svg>
