<?xml version="1.0" encoding="utf-8"?>
<!-- Generator: Adobe Illustrator 16.0.0, SVG Export Plug-In . SVG Version: 6.00 Build 0)  -->
<!DOCTYPE svg PUBLIC "-//W3C//DTD SVG 1.1//EN" "http://www.w3.org/Graphics/SVG/1.1/DTD/svg11.dtd">
<svg version="1.1" id="Calque_1" xmlns="http://www.w3.org/2000/svg" xmlns:xlink="http://www.w3.org/1999/xlink" x="0px" y="0px"
	 width="65.168px" height="65.168px" viewBox="0 0 65.168 65.168" enable-background="new 0 0 65.168 65.168" xml:space="preserve">
<g>
	<g>
		<path fill="#1D1D1B" d="M1.113,57.685v5.613H0V49.791h4.657c1.416,0,2.513,0.361,3.289,1.086c0.776,0.723,1.164,1.676,1.164,2.857
			c0,1.199-0.388,2.158-1.164,2.875c-0.776,0.719-1.873,1.076-3.289,1.076H1.113z M1.113,56.74h3.544
			c1.113,0,1.948-0.283,2.505-0.85c0.557-0.565,0.835-1.278,0.835-2.139c0-0.865-0.278-1.584-0.835-2.156s-1.392-0.858-2.505-0.858
			H1.113V56.74z"/>
		<path fill="#1D1D1B" d="M12.803,57.194v6.104h-1.113V49.8h4.5c1.447,0,2.557,0.316,3.331,0.95c0.773,0.634,1.16,1.561,1.16,2.778
			c0,0.719-0.206,1.359-0.617,1.926c-0.411,0.565-0.994,0.979-1.749,1.238c0.835,0.211,1.437,0.586,1.804,1.127
			c0.368,0.541,0.552,1.221,0.552,2.037v1.271c0,0.421,0.049,0.798,0.148,1.132c0.099,0.334,0.263,0.606,0.492,0.816v0.223h-1.132
			c-0.229-0.223-0.39-0.535-0.482-0.938c-0.093-0.401-0.139-0.818-0.139-1.252v-1.234c0-0.828-0.268-1.482-0.802-1.962
			c-0.535-0.479-1.282-0.719-2.241-0.719H12.803z M12.803,56.248h3.256c1.218,0,2.109-0.246,2.672-0.737
			c0.563-0.492,0.844-1.155,0.844-1.99c0-0.891-0.28-1.575-0.839-2.055c-0.56-0.479-1.409-0.72-2.547-0.72h-3.386V56.248z"/>
		<path fill="#1D1D1B" d="M25.513,63.298h-1.113V49.791h1.113V63.298z"/>
		<path fill="#1D1D1B" d="M36.868,60.014c0-0.692-0.275-1.265-0.826-1.716s-1.484-0.875-2.801-1.271
			c-1.441-0.396-2.537-0.889-3.289-1.479c-0.751-0.591-1.127-1.394-1.127-2.407c0-1.033,0.42-1.883,1.262-2.547
			c0.841-0.665,1.915-0.998,3.219-0.998c1.373,0,2.477,0.376,3.313,1.128c0.834,0.751,1.24,1.706,1.215,2.862l-0.018,0.055h-1.039
			c0-0.891-0.324-1.629-0.971-2.217s-1.479-0.881-2.5-0.881c-1.051,0-1.875,0.248-2.472,0.746c-0.597,0.498-0.896,1.109-0.896,1.832
			c0,0.688,0.271,1.252,0.812,1.693c0.542,0.442,1.496,0.855,2.862,1.238c1.422,0.415,2.508,0.926,3.256,1.531
			c0.748,0.606,1.123,1.41,1.123,2.412c0,1.052-0.438,1.897-1.313,2.537c-0.875,0.641-1.979,0.961-3.309,0.961
			c-1.33,0-2.489-0.339-3.478-1.017c-0.99-0.677-1.469-1.665-1.438-2.964l0.019-0.056h1.03c0,1.046,0.393,1.823,1.178,2.333
			c0.785,0.511,1.682,0.766,2.689,0.766c1.033,0,1.875-0.236,2.523-0.71C36.543,61.374,36.868,60.763,36.868,60.014z"/>
		<path fill="#1D1D1B" d="M47.211,61.684h0.057l5.027-11.894h1.355v13.508h-1.113V51.953l-0.057-0.01l-4.842,11.355H46.84
			l-4.953-11.634l-0.057,0.009v11.625h-1.113V49.791h1.484L47.211,61.684z"/>
		<path fill="#1D1D1B" d="M64.272,56.757h-6.057v5.604h7.004v0.938h-8.117V49.791h8.07v0.946h-6.957v5.075h6.057V56.757z"/>
	</g>
	<g>
		<path fill-rule="evenodd" clip-rule="evenodd" fill="#1D1D1B" d="M35.176,45.048c-7.652,0-15.303,0-22.954,0
			c-0.982,0-1.584-0.416-1.768-1.212c-0.107-0.461,0.035-0.863,0.264-1.258c2.073-3.585,4.141-7.172,6.211-10.758
			c5.613-9.724,11.228-19.446,16.84-29.17c0.487-0.843,1.229-1.194,1.982-0.835c0.334,0.159,0.658,0.466,0.846,0.789
			c4.568,7.878,9.119,15.767,13.67,23.654c3.131,5.422,6.258,10.847,9.398,16.264c0.33,0.572,0.465,1.132,0.137,1.732
			c-0.344,0.624-0.922,0.796-1.59,0.796C50.534,45.047,42.854,45.048,35.176,45.048z M48.292,38.313L35.208,14.342L22.417,38.313
			C29.975,38.313,40.76,38.313,48.292,38.313z"/>
		<path fill-rule="evenodd" clip-rule="evenodd" fill="#1D1D1B" d="M65.168,10.188c0.036,0.773,0,2.427,0,2.427
			c0.034,0.628-0.254,0.988-0.837,1.337c-3.931,2.341-8.077,4.788-12.003,7.132c-0.764,0.457-1.736,0.378-2.221-0.336l-2.072-3.584
			c-0.55-0.82-0.272-1.58,0.594-2.099c4.636-2.773,9.557-5.545,14.194-8.314c0.722-0.431,1.451-0.418,1.926,0.115
			c0.231,0.256,0.38,0.633,0.419,0.97C65.258,8.614,65.131,9.404,65.168,10.188z"/>
		<path fill-rule="evenodd" clip-rule="evenodd" fill="#1D1D1B" d="M54.353,1.73c1.408,0.011,4.216-0.055,4.216-0.055
			c0.697,0.006,1.191,0.44,1.355,1.044c0.173,0.631-0.005,1.27-0.611,1.612c0,0-8.385,5.34-12.566,7.682
			c-0.773,0.432-1.533,0.277-1.975-0.491c-0.677-1.177-1.346-2.357-2.009-3.541c-0.415-0.742-0.169-1.545,0.57-1.965
			c1.979-1.126,5.462-2.958,7.45-4.066c0.259-0.144,0.588-0.226,0.885-0.229C53.077,1.708,52.945,1.72,54.353,1.73z"/>
		<path fill-rule="evenodd" clip-rule="evenodd" fill="#1D1D1B" d="M65.199,21.369v3.014c0.029,0.596-0.151,1.053-0.706,1.386
			c-2.338,1.401-4.668,2.818-7.001,4.224c-0.796,0.479-1.644,0.488-2.157-0.252l-2.247-3.888c-0.492-0.852-0.392-1.241,0.375-1.705
			c3.082-1.864,6.165-3.727,9.256-5.585c1.058-0.637,2.406-0.086,2.48,1.08V21.369z"/>
		<path fill-rule="evenodd" clip-rule="evenodd" fill="#1D1D1B" d="M65.22,33.73c0,0.771-0.004,1.544,0.002,2.316
			c0.004,0.617-0.247,1.068-0.784,1.373c-0.793,0.448-1.569,0.923-2.359,1.377c-0.798,0.459-1.509,0.264-1.969-0.537
			c-0.675-1.172-1.343-2.346-2.005-3.521c-0.447-0.793-0.255-1.517,0.52-1.971c1.496-0.88,2.993-1.758,4.494-2.629
			c1.063-0.618,2.096-0.007,2.102,1.239C65.224,32.161,65.22,32.945,65.22,33.73z"/>
		<path fill-rule="evenodd" clip-rule="evenodd" fill="#1D1D1B" d="M4.812,38.688c1.011,0,2.021-0.006,3.033,0.001
			c1.464,0.008,2.142,0.979,1.424,2.034c-0.81,1.189-1.63,2.375-2.429,3.57c-0.348,0.519-0.866,0.757-1.568,0.756
			c-1.196-0.001-2.392,0.007-3.588-0.003c-1.083-0.008-1.682-0.518-1.683-1.415c-0.001-1.191-0.002-2.383,0-3.573
			c0.002-0.835,0.602-1.354,1.607-1.368C2.676,38.676,3.744,38.688,4.812,38.688z"/>
	</g>
</g>
</svg>
