<?xml version="1.0" encoding="utf-8"?>
<!-- Generator: Adobe Illustrator 16.0.0, SVG Export Plug-In . SVG Version: 6.00 Build 0)  -->
<!DOCTYPE svg PUBLIC "-//W3C//DTD SVG 1.1//EN" "http://www.w3.org/Graphics/SVG/1.1/DTD/svg11.dtd">
<svg version="1.1" id="Calque_1" xmlns="http://www.w3.org/2000/svg" xmlns:xlink="http://www.w3.org/1999/xlink" x="0px" y="0px"
	 width="18.35px" height="18.35px" viewBox="0 0 18.35 18.35" enable-background="new 0 0 18.35 18.35" xml:space="preserve">
<g>
	<path d="M14.105,14.532c-0.182,0.149-0.354,0.297-0.53,0.433c-0.599,0.456-1.25,0.813-1.962,1.06
		c-0.108,0.038-0.151,0.088-0.147,0.209c0.01,0.346,0.006,0.694,0.002,1.042c-0.004,0.622-0.453,1.067-1.078,1.07
		c-0.811,0.002-1.621,0.002-2.431-0.001c-0.624-0.002-1.072-0.451-1.074-1.072c-0.002-0.349-0.004-0.695,0.002-1.043
		c0.001-0.107-0.025-0.162-0.135-0.2c-0.896-0.312-1.697-0.786-2.404-1.419c-0.075-0.067-0.129-0.066-0.211-0.021
		c-0.3,0.173-0.604,0.341-0.91,0.507c-0.567,0.312-1.168,0.141-1.483-0.427c-0.392-0.7-0.781-1.404-1.168-2.108
		C0.261,11.99,0.433,11.4,1.003,11.08c0.303-0.169,0.606-0.333,0.906-0.509c0.045-0.026,0.094-0.105,0.085-0.151
		C1.842,9.563,1.84,8.706,2.022,7.837c-0.32-0.18-0.638-0.354-0.955-0.531C0.409,6.94,0.247,6.372,0.612,5.714
		c0.367-0.67,0.737-1.338,1.107-2.005C2.057,3.101,2.641,2.932,3.25,3.266C3.549,3.43,3.849,3.594,4.144,3.764
		C4.223,3.809,4.272,3.806,4.34,3.743c0.714-0.642,1.525-1.124,2.432-1.439c0.09-0.031,0.113-0.074,0.111-0.162
		c-0.004-0.358-0.002-0.718,0-1.077c0.003-0.603,0.452-1.058,1.052-1.061c0.827-0.003,1.655-0.003,2.483,0
		c0.59,0.002,1.043,0.455,1.049,1.046c0.004,0.364-0.002,0.729,0.006,1.095c0,0.051,0.049,0.131,0.096,0.146
		c0.935,0.332,1.765,0.834,2.498,1.497c0.009,0.008,0.021,0.011,0.045,0.023c0.314-0.175,0.64-0.354,0.962-0.534
		c0.639-0.354,1.217-0.188,1.567,0.449c0.375,0.678,0.75,1.354,1.125,2.034c0.33,0.597,0.158,1.184-0.438,1.518
		c-0.293,0.164-0.586,0.328-0.879,0.488c-0.082,0.043-0.115,0.083-0.095,0.187c0.154,0.812,0.156,1.623,0,2.434
		c-0.021,0.112,0.019,0.152,0.103,0.198c0.307,0.165,0.608,0.334,0.912,0.504c0.541,0.306,0.719,0.897,0.424,1.441
		c-0.396,0.728-0.795,1.451-1.203,2.172c-0.297,0.527-0.902,0.695-1.438,0.408C14.801,14.921,14.453,14.725,14.105,14.532z
		 M9.174,17.928c0.406,0,0.811,0.002,1.217,0c0.402-0.003,0.658-0.261,0.66-0.666c0.002-0.41,0.004-0.821-0.002-1.232
		c-0.002-0.162,0.055-0.255,0.215-0.306c0.992-0.315,1.867-0.829,2.623-1.544c0.119-0.114,0.229-0.132,0.371-0.048
		c0.352,0.203,0.707,0.396,1.061,0.593c0.384,0.21,0.716,0.119,0.927-0.259c0.391-0.702,0.778-1.403,1.166-2.108
		c0.202-0.37,0.104-0.703-0.265-0.91c-0.352-0.197-0.705-0.397-1.063-0.586c-0.154-0.082-0.193-0.192-0.162-0.356
		c0.178-0.89,0.176-1.781,0-2.672c-0.031-0.155,0.008-0.263,0.156-0.343c0.352-0.187,0.698-0.385,1.047-0.578
		c0.395-0.221,0.494-0.555,0.276-0.947c-0.383-0.693-0.766-1.387-1.149-2.079c-0.211-0.379-0.545-0.476-0.924-0.269
		c-0.354,0.195-0.709,0.388-1.06,0.591c-0.147,0.086-0.262,0.075-0.387-0.045c-0.756-0.715-1.629-1.231-2.621-1.548
		c-0.15-0.048-0.215-0.132-0.213-0.289c0.006-0.411,0.004-0.822,0.002-1.231c-0.002-0.418-0.254-0.674-0.668-0.675
		c-0.807-0.001-1.61-0.001-2.415,0C7.552,0.421,7.3,0.674,7.299,1.094C7.298,1.503,7.297,1.914,7.3,2.325
		c0.002,0.147-0.05,0.239-0.195,0.285C6.101,2.928,5.217,3.451,4.455,4.174C4.34,4.283,4.234,4.294,4.096,4.216
		C3.735,4.008,3.371,3.809,3.004,3.61C2.643,3.414,2.308,3.511,2.108,3.871C1.716,4.573,1.327,5.277,0.94,5.981
		C0.734,6.355,0.835,6.694,1.21,6.905C1.564,7.102,1.916,7.3,2.273,7.49C2.42,7.57,2.459,7.677,2.427,7.834
		c-0.177,0.891-0.178,1.781,0,2.672c0.032,0.164-0.008,0.273-0.162,0.355c-0.354,0.186-0.7,0.383-1.048,0.578
		c-0.389,0.217-0.484,0.547-0.271,0.934c0.384,0.693,0.767,1.388,1.151,2.08c0.216,0.39,0.546,0.484,0.934,0.271
		c0.354-0.195,0.712-0.39,1.062-0.593c0.144-0.084,0.252-0.065,0.371,0.048c0.752,0.711,1.621,1.225,2.606,1.536
		c0.175,0.056,0.236,0.152,0.232,0.33c-0.009,0.405-0.004,0.812-0.002,1.216c0.001,0.407,0.254,0.663,0.659,0.666
		C8.364,17.93,8.77,17.928,9.174,17.928z"/>
	<path d="M9.17,13.133C6.984,13.13,5.212,11.35,5.215,9.159C5.22,6.983,7,5.211,9.18,5.214C11.366,5.216,13.141,7,13.135,9.188
		C13.129,11.365,11.35,13.137,9.17,13.133z M9.168,5.63C7.21,5.633,5.63,7.219,5.632,9.18c0.002,1.957,1.589,3.539,3.547,3.536
		c1.957-0.002,3.541-1.592,3.539-3.549C12.715,7.21,11.127,5.628,9.168,5.63z"/>
</g>
</svg>
