<?xml version="1.0" encoding="utf-8"?>
<!-- Generator: Adobe Illustrator 16.0.0, SVG Export Plug-In . SVG Version: 6.00 Build 0)  -->
<!DOCTYPE svg PUBLIC "-//W3C//DTD SVG 1.1//EN" "http://www.w3.org/Graphics/SVG/1.1/DTD/svg11.dtd">
<svg version="1.1" id="Calque_1" xmlns="http://www.w3.org/2000/svg" xmlns:xlink="http://www.w3.org/1999/xlink" x="0px" y="0px"
	 width="19.004px" height="19.004px" viewBox="0 0 19.004 19.004" enable-background="new 0 0 19.004 19.004" xml:space="preserve">
<g>
	<path fill-rule="evenodd" clip-rule="evenodd" d="M3.272,3.76c0.013-0.877,0.322-1.946,1.205-2.766
		c1.081-1.002,2.373-1.203,3.744-0.798c1.354,0.401,2.148,1.381,2.453,2.732c0.332,1.486,0.079,2.889-0.808,4.141
		c-1.482,2.09-4.163,2.085-5.658,0.005C3.596,6.223,3.273,5.181,3.272,3.76z M7.038,0.488c-1.531,0-2.702,0.864-3.125,2.304
		C3.729,3.428,3.698,4.078,3.787,4.731c0.126,0.928,0.468,1.764,1.117,2.452c0.664,0.703,1.472,1.074,2.455,0.958
		C8.222,8.041,8.886,7.588,9.4,6.914c0.797-1.046,1.044-2.241,0.891-3.53C10.079,1.64,8.781,0.487,7.038,0.488z"/>
	<path fill-rule="evenodd" clip-rule="evenodd" d="M13.869,15.243c0,0.064-0.002,0.131,0,0.195c0.004,0.16-0.055,0.273-0.23,0.275
		c-0.176,0.002-0.232-0.117-0.239-0.271c-0.009-0.176-0.007-0.354-0.026-0.529c-0.247-2.029-1.409-3.309-3.292-3.986
		c-0.706-0.254-1.439-0.379-2.188-0.393c-0.947-0.02-1.896-0.059-2.835,0.117c-1.341,0.25-2.528,0.783-3.405,1.875
		c-0.616,0.768-0.913,1.66-0.968,2.639c-0.006,0.098,0,0.195-0.008,0.293c-0.011,0.158-0.082,0.268-0.256,0.256
		c-0.164-0.012-0.215-0.121-0.215-0.273c0.001-0.787,0.152-1.543,0.498-2.254c0.697-1.436,1.877-2.291,3.362-2.77
		c0.701-0.225,1.421-0.342,2.156-0.357c1.07-0.02,2.143-0.051,3.196,0.197c1.432,0.338,2.658,0.998,3.536,2.217
		C13.515,13.25,13.843,14.258,13.869,15.243z"/>
</g>
<g>
	
		<line fill="none" stroke="#2FB2A5" stroke-width="1.5" stroke-linecap="round" stroke-miterlimit="10" x1="13.6" y1="9.278" x2="13.6" y2="18.254"/>
	
		<line fill="none" stroke="#2FB2A5" stroke-width="1.5" stroke-linecap="round" stroke-miterlimit="10" x1="18.089" y1="13.766" x2="9.111" y2="13.766"/>
</g>
</svg>
