<?xml version="1.0" encoding="utf-8"?>
<!-- Generator: Adobe Illustrator 16.0.0, SVG Export Plug-In . SVG Version: 6.00 Build 0)  -->
<!DOCTYPE svg PUBLIC "-//W3C//DTD SVG 1.1//EN" "http://www.w3.org/Graphics/SVG/1.1/DTD/svg11.dtd">
<svg version="1.1" id="Calque_1" xmlns="http://www.w3.org/2000/svg" xmlns:xlink="http://www.w3.org/1999/xlink" x="0px" y="0px"
	 width="16.25px" height="16.25px" viewBox="0 0 16.25 16.25" enable-background="new 0 0 16.25 16.25" xml:space="preserve">
<g>
	<path stroke="#000100" stroke-width="0.5" stroke-miterlimit="10" d="M4.358,4.028C4.372,3.15,4.681,2.082,5.563,1.262
		C6.645,0.26,7.937,0.059,9.309,0.463c1.354,0.401,2.146,1.381,2.453,2.732c0.33,1.486,0.078,2.889-0.809,4.141
		C9.471,9.427,6.79,9.422,5.294,7.341C4.683,6.491,4.359,5.449,4.358,4.028z M8.125,0.755C6.594,0.755,5.422,1.62,5,3.06
		C4.815,3.696,4.785,4.346,4.874,4.999C5,5.927,5.341,6.763,5.991,7.451c0.664,0.703,1.472,1.074,2.455,0.958
		c0.863-0.1,1.527-0.553,2.041-1.227c0.799-1.046,1.045-2.241,0.893-3.53C11.166,1.908,9.867,0.754,8.125,0.755z"/>
	<path stroke="#000100" stroke-width="0.5" stroke-miterlimit="10" d="M14.955,15.511c0,0.063-0.002,0.131,0,0.194
		c0.004,0.16-0.055,0.272-0.229,0.274c-0.176,0.002-0.232-0.116-0.238-0.271c-0.01-0.176-0.008-0.354-0.027-0.528
		c-0.246-2.029-1.408-3.31-3.291-3.985c-0.707-0.255-1.439-0.38-2.188-0.394c-0.948-0.021-1.897-0.06-2.836,0.116
		c-1.341,0.25-2.528,0.783-3.405,1.875c-0.616,0.769-0.913,1.66-0.968,2.64c-0.006,0.099,0,0.194-0.008,0.293
		c-0.011,0.158-0.082,0.269-0.256,0.256c-0.164-0.012-0.215-0.12-0.215-0.272c0.001-0.787,0.152-1.543,0.498-2.254
		c0.697-1.437,1.877-2.291,3.362-2.771c0.701-0.226,1.421-0.342,2.156-0.356c1.07-0.021,2.143-0.052,3.195,0.196
		c1.434,0.339,2.658,0.998,3.537,2.218C14.604,13.518,14.93,14.525,14.955,15.511z"/>
</g>
</svg>
