<?xml version="1.0" encoding="utf-8"?>
<!-- Generator: Adobe Illustrator 16.0.0, SVG Export Plug-In . SVG Version: 6.00 Build 0)  -->
<!DOCTYPE svg PUBLIC "-//W3C//DTD SVG 1.1//EN" "http://www.w3.org/Graphics/SVG/1.1/DTD/svg11.dtd">
<svg version="1.1" id="Calque_1" xmlns="http://www.w3.org/2000/svg" xmlns:xlink="http://www.w3.org/1999/xlink" x="0px" y="0px"
	 width="11.075px" height="9.984px" viewBox="0 0 11.075 9.984" enable-background="new 0 0 11.075 9.984" xml:space="preserve">
<g>
	<path fill-rule="evenodd" clip-rule="evenodd" fill="#FFFFFF" d="M8.225,7.921c-0.099,0.082-0.192,0.163-0.29,0.237
		C7.609,8.406,7.253,8.601,6.866,8.735c-0.06,0.021-0.083,0.047-0.081,0.114C6.79,9.038,6.788,9.227,6.787,9.416
		C6.785,9.755,6.539,9.999,6.198,10C5.757,10,5.315,10,4.873,10c-0.34-0.001-0.584-0.246-0.585-0.585
		c-0.001-0.19-0.002-0.379,0.001-0.568c0-0.059-0.014-0.088-0.074-0.109C3.727,8.567,3.29,8.309,2.905,7.963
		C2.863,7.927,2.834,7.927,2.79,7.953C2.626,8.046,2.46,8.138,2.294,8.229c-0.311,0.169-0.637,0.076-0.81-0.232
		C1.271,7.614,1.059,7.231,0.848,6.847C0.677,6.535,0.771,6.213,1.081,6.04c0.165-0.093,0.332-0.182,0.495-0.278
		C1.6,5.747,1.626,5.704,1.622,5.679C1.539,5.211,1.537,4.745,1.637,4.271C1.462,4.173,1.289,4.077,1.117,3.98
		c-0.359-0.2-0.448-0.508-0.249-0.867C1.07,2.749,1.271,2.385,1.473,2.021C1.657,1.689,1.975,1.597,2.307,1.78
		C2.47,1.869,2.633,1.958,2.795,2.05C2.837,2.075,2.864,2.073,2.901,2.04c0.39-0.35,0.832-0.612,1.326-0.785
		c0.048-0.017,0.061-0.041,0.061-0.088c-0.002-0.196-0.002-0.392,0-0.587c0.001-0.329,0.246-0.577,0.573-0.578
		C5.312,0,5.764,0,6.214,0.001c0.322,0.001,0.568,0.248,0.572,0.57C6.789,0.771,6.785,0.969,6.79,1.168
		c0,0.028,0.027,0.072,0.052,0.081C7.35,1.43,7.803,1.704,8.204,2.064C8.208,2.069,8.215,2.07,8.228,2.078
		c0.172-0.096,0.348-0.194,0.524-0.291C9.1,1.594,9.415,1.684,9.607,2.031c0.204,0.37,0.409,0.739,0.613,1.109
		c0.179,0.325,0.086,0.646-0.239,0.828c-0.16,0.089-0.319,0.179-0.48,0.266C9.457,4.257,9.439,4.279,9.45,4.335
		c0.084,0.442,0.084,0.885,0,1.326C9.439,5.723,9.459,5.745,9.506,5.77c0.167,0.091,0.332,0.183,0.497,0.275
		c0.295,0.167,0.393,0.49,0.23,0.787C10.018,7.227,9.8,7.622,9.579,8.014C9.417,8.302,9.086,8.394,8.795,8.237
		C8.603,8.134,8.415,8.026,8.225,7.921z M5.537,9.772c0.221,0,0.441,0.001,0.663,0c0.22-0.001,0.358-0.141,0.359-0.363
		c0.001-0.224,0.003-0.448,0-0.672c-0.001-0.088,0.03-0.138,0.117-0.166c0.541-0.172,1.018-0.452,1.43-0.842
		C8.17,7.667,8.229,7.658,8.308,7.705C8.5,7.814,8.693,7.92,8.886,8.026c0.208,0.115,0.39,0.064,0.504-0.14
		c0.213-0.383,0.425-0.766,0.636-1.15c0.11-0.202,0.058-0.383-0.145-0.496C9.691,6.132,9.499,6.023,9.303,5.92
		C9.219,5.875,9.197,5.815,9.215,5.726c0.097-0.485,0.097-0.971,0-1.457C9.198,4.184,9.219,4.126,9.3,4.083
		c0.192-0.102,0.381-0.21,0.571-0.315c0.216-0.121,0.269-0.303,0.151-0.517C9.813,2.873,9.604,2.495,9.395,2.118
		C9.28,1.911,9.098,1.858,8.892,1.972C8.698,2.078,8.505,2.183,8.314,2.293C8.232,2.341,8.172,2.335,8.104,2.27
		c-0.412-0.39-0.888-0.672-1.429-0.844C6.593,1.399,6.558,1.354,6.559,1.268c0.003-0.224,0.002-0.448,0-0.672
		c0-0.228-0.138-0.366-0.364-0.367c-0.438-0.001-0.877-0.001-1.316,0c-0.226,0-0.364,0.139-0.364,0.367
		c-0.001,0.224-0.002,0.448,0,0.672c0.001,0.08-0.027,0.13-0.107,0.155C3.861,1.595,3.38,1.881,2.963,2.275
		c-0.062,0.059-0.12,0.065-0.195,0.022c-0.197-0.113-0.396-0.222-0.595-0.33c-0.197-0.106-0.38-0.054-0.489,0.142
		c-0.214,0.382-0.426,0.766-0.637,1.15C0.936,3.463,0.99,3.647,1.195,3.763c0.192,0.108,0.385,0.216,0.579,0.32
		C1.855,4.126,1.875,4.184,1.858,4.27c-0.097,0.485-0.097,0.972,0,1.457C1.876,5.817,1.854,5.875,1.77,5.92
		C1.577,6.021,1.389,6.129,1.199,6.235c-0.211,0.119-0.264,0.298-0.148,0.51C1.259,7.123,1.468,7.5,1.678,7.878
		c0.118,0.211,0.299,0.264,0.51,0.148c0.193-0.106,0.387-0.211,0.578-0.322c0.079-0.045,0.138-0.036,0.203,0.025
		c0.41,0.388,0.883,0.667,1.421,0.838c0.095,0.03,0.129,0.083,0.127,0.18C4.511,8.968,4.514,9.188,4.515,9.409
		c0.001,0.222,0.139,0.362,0.359,0.363C5.095,9.773,5.316,9.772,5.537,9.772z"/>
	<path fill-rule="evenodd" clip-rule="evenodd" fill="#FFFFFF" d="M5.534,7.159c-1.191,0-2.158-0.973-2.155-2.166
		C3.381,3.806,4.351,2.84,5.54,2.841c1.191,0.001,2.159,0.974,2.156,2.167C7.692,6.194,6.722,7.16,5.534,7.159z M5.534,3.069
		C4.466,3.07,3.605,3.935,3.605,5.003C3.606,6.07,4.472,6.933,5.54,6.932c1.066-0.001,1.93-0.867,1.929-1.935
		C7.467,3.93,6.602,3.068,5.534,3.069z"/>
</g>
</svg>
